<?xml version="1.0" standalone="no"?>
<!DOCTYPE svg PUBLIC "-//W3C//DTD SVG 20010904//EN"
 "http://www.w3.org/TR/2001/REC-SVG-20010904/DTD/svg10.dtd">
<svg version="1.0" xmlns="http://www.w3.org/2000/svg"
 width="512.000000pt" height="512.000000pt" viewBox="0 0 512.000000 512.000000"
 preserveAspectRatio="xMidYMid meet">
<metadata>
Created by potrace 1.11, written by Peter Selinger 2001-2013
</metadata>
<g transform="translate(0.000000,512.000000) scale(0.100000,-0.100000)"
fill="#000000" stroke="none">
<path d="M2448 4493 c-25 -29 -29 -56 -12 -88 17 -32 19 -85 8 -257 l-6 -96
-57 -22 c-273 -104 -478 -376 -552 -735 -12 -60 -12 -61 19 -110 28 -44 30
-51 16 -60 -81 -50 -226 -170 -294 -242 -445 -475 -487 -1191 -102 -1726 122
-171 340 -346 538 -435 396 -177 867 -153 1231 62 345 204 572 519 654 909 31
147 32 391 1 534 -56 258 -170 475 -351 665 l-83 88 32 50 c32 49 32 52 32
173 0 373 -150 644 -435 786 -114 57 -221 88 -339 97 l-80 7 6 40 c4 22 13 49
21 60 24 35 19 82 -11 106 -35 28 -69 26 -99 -4 -28 -27 -33 -76 -10 -95 10
-8 15 -31 15 -66 0 -47 -3 -54 -19 -54 -11 0 -25 -2 -33 -5 -20 -8 -5 290 17
311 47 47 17 117 -52 122 -28 2 -44 -2 -55 -15z m440 -514 c270 -70 450 -249
524 -522 21 -77 38 -327 22 -327 -13 -1 -1519 153 -1522 155 -1 1 9 42 24 91
82 286 248 487 474 577 57 22 91 30 210 51 47 8 191 -5 268 -25z m484 -929
l28 0 -36 -50 c-20 -27 -40 -50 -44 -50 -14 0 -1253 140 -1290 145 -30 5 -40
14 -62 53 l-27 47 702 -72 c386 -40 714 -72 729 -73z m-1072 -70 c47 -5 99
-12 117 -15 l32 -6 3 -88 3 -88 -150 -6 c-82 -3 -150 -4 -150 -4 -1 1 1 50 3
110 l4 107 27 0 c14 0 65 -4 111 -10z m-510 -77 c0 -283 -95 -535 -267 -709
-54 -55 -203 -164 -224 -164 -13 0 -11 30 6 137 38 233 141 450 308 644 45 54
153 149 168 149 5 0 9 -26 9 -57z m1299 -13 c137 -16 177 -24 188 -38 51 -64
200 -298 229 -361 20 -42 41 -87 48 -101 14 -30 47 -37 66 -15 11 13 11 24 1
58 -20 64 -84 183 -171 313 -75 112 -77 119 -63 140 l15 24 31 -25 c76 -57
193 -214 262 -350 81 -159 118 -294 140 -502 l7 -63 -29 0 c-50 0 -225 30
-303 51 -102 28 -241 97 -321 157 -197 150 -331 402 -355 668 l-7 76 44 -6
c24 -4 122 -15 218 -26z m-609 -257 c17 -90 62 -228 105 -320 79 -172 240
-364 391 -469 l71 -50 -75 -95 -74 -95 -83 33 c-174 70 -358 99 -574 90 -159
-6 -266 -25 -409 -73 -58 -19 -105 -34 -106 -32 -11 16 -86 196 -86 204 0 6
28 33 61 60 206 165 379 462 430 738 l12 65 91 4 c50 1 123 4 162 5 l72 2 12
-67z m-875 -944 c22 -51 41 -95 43 -99 1 -4 -30 -27 -70 -50 -40 -24 -95 -59
-121 -78 -26 -19 -49 -33 -51 -31 -19 22 -76 180 -76 211 0 10 6 18 13 18 6 0
57 27 112 59 55 32 102 59 105 60 3 1 24 -40 45 -90z m1596 27 c139 -64 292
-104 532 -141 36 -6 38 -8 32 -33 -12 -51 -95 -215 -149 -296 -30 -45 -81
-110 -113 -145 l-59 -64 -46 79 c-25 43 -66 106 -91 139 -59 79 -196 210 -275
264 l-62 42 62 80 c35 44 67 87 73 95 13 19 11 19 96 -20z m-712 -366 c146
-41 292 -131 420 -260 78 -79 191 -222 206 -261 7 -20 -71 -57 -195 -92 -358
-104 -751 -45 -1060 159 -59 38 -230 179 -230 189 0 2 -3 10 -6 18 -11 30 236
176 381 225 52 18 87 25 205 46 51 9 208 -5 279 -24z"/>
<path d="M2653 3916 c-96 -31 -177 -108 -213 -202 -29 -79 -26 -187 9 -257 90
-185 330 -248 492 -129 162 120 185 348 50 494 -82 90 -228 130 -338 94z"/>
<path d="M2175 3535 c-37 -36 -34 -86 6 -119 40 -34 74 -33 110 3 37 37 38 78
4 115 -32 35 -86 36 -120 1z"/>
<path d="M3595 2296 c-15 -11 -17 -21 -11 -71 8 -69 20 -87 55 -83 25 3 26 5
24 66 -1 45 -7 70 -19 83 -20 23 -25 23 -49 5z"/>
<path d="M2192 2117 c-28 -30 -28 -61 0 -87 29 -26 59 -25 86 3 27 29 28 47 1
81 -25 32 -59 33 -87 3z"/>
<path d="M3280 1550 c-28 -28 -23 -67 12 -93 23 -17 31 -19 53 -9 38 18 51 60
27 91 -25 34 -65 38 -92 11z"/>
<path d="M1857 1093 c-4 -3 -7 -17 -7 -30 0 -28 48 -64 168 -126 216 -111 447
-160 652 -137 171 19 251 54 224 98 -14 21 -34 20 -143 -3 -114 -24 -330 -17
-446 15 -104 28 -248 91 -333 146 -63 41 -100 53 -115 37z"/>
</g>
</svg>
